<svg xmlns="http://www.w3.org/2000/svg" viewBox="0 0 65.63 65.63"><defs><style>.icon-1{fill:#4d4d4d;}</style></defs><title>aplicar</title><g id="Layer_2" data-name="Layer 2"><g id="intro"><path class="icon-1" d="M32.82,65.63A32.82,32.82,0,1,1,65.63,32.82,32.85,32.85,0,0,1,32.82,65.63Zm0-64A31.22,31.22,0,1,0,64,32.82,31.26,31.26,0,0,0,32.82,1.59Z"/><path class="icon-1" d="M22.64,46.88a1.08,1.08,0,0,1-.77-.32l-2.69-2.69a1.09,1.09,0,0,1,0-1.54l7.54-7.54a1.09,1.09,0,0,1,1.54,0l.33.33,1.69-1.69a1.25,1.25,0,0,1,1.78,0l8.74,8.74,3.29-3.29-.76-.76-1.46,1.46a2.13,2.13,0,0,1-3,0L25.35,26.08a2.13,2.13,0,0,1,0-3l3.86-3.86a2.1,2.1,0,0,1,3,0L45.7,32.74a2.13,2.13,0,0,1,0,3l-.35.35L47.26,38a1.26,1.26,0,0,1,0,1.78l-5.57,5.57a1.26,1.26,0,0,1-1.78,0l-8.74-8.74-.55.55.33.33A1.09,1.09,0,0,1,31,39l-7.54,7.54A1.08,1.08,0,0,1,22.64,46.88Zm4.85-11.5a.18.18,0,0,0-.13.05L19.82,43a.18.18,0,0,0,0,.25l2.69,2.69a.18.18,0,0,0,.25,0l7.54-7.54a.18.18,0,0,0,0-.25l-1-1,1.84-1.84,9.38,9.38a.35.35,0,0,0,.49,0l5.57-5.57a.35.35,0,0,0,0-.49l-2.55-2.55,1-1a1.22,1.22,0,0,0,0-1.72L31.53,19.85a1.19,1.19,0,0,0-1.68,0L26,23.71a1.22,1.22,0,0,0,0,1.72L39.5,38.94a1.22,1.22,0,0,0,1.72,0l2.11-2.11,2.05,2.05L40.8,43.46l-9.38-9.38a.35.35,0,0,0-.49,0l-2.34,2.34-1-1A.18.18,0,0,0,27.49,35.38Z"/></g></g></svg>