<svg xmlns="http://www.w3.org/2000/svg" viewBox="0 0 61.89 61.89">
  <defs><style>.aplica-1{fill:#4fa932;}.aplica-2{fill:none;}</style></defs><title>aplica</title><g id="Layer_2" data-name="Layer 2"><g id="intro"><path class="aplica-1" d="M11,57.6A2,2,0,0,1,9.52,57L4.44,51.92a2.05,2.05,0,0,1,0-2.9L18.65,34.82a2.05,2.05,0,0,1,2.9,0l.63.63,3.19-3.19a2.36,2.36,0,0,1,3.35,0L45.19,48.73l6.19-6.2-1.44-1.44-2.76,2.76a4,4,0,0,1-5.67,0L16.06,18.39a4,4,0,0,1,0-5.67l7.27-7.27a4,4,0,0,1,5.59,0L54.42,30.95a4,4,0,0,1,0,5.67l-.65.65,3.59,3.59a2.37,2.37,0,0,1,0,3.35L46.86,54.7a2.37,2.37,0,0,1-3.35,0L27,38.23l-1,1,.62.62a2.05,2.05,0,0,1,0,2.9L12.41,57A2,2,0,0,1,11,57.6ZM20.1,35.93a.33.33,0,0,0-.24.1L5.66,50.24a.34.34,0,0,0,0,.47l5.07,5.07a.34.34,0,0,0,.47,0L25.41,41.58a.34.34,0,0,0,0-.47l-1.83-1.83L27,35.81,44.72,53.49a.67.67,0,0,0,.92,0L56.15,43a.65.65,0,0,0,0-.92l-4.8-4.8,1.86-1.86a2.29,2.29,0,0,0,0-3.24L27.72,6.67a2.24,2.24,0,0,0-3.17,0l-7.27,7.27a2.3,2.3,0,0,0,0,3.24L42.73,42.64a2.29,2.29,0,0,0,3.24,0l4-4,3.86,3.86-8.62,8.62L27.5,33.47a.67.67,0,0,0-.92,0l-4.4,4.4L20.34,36A.33.33,0,0,0,20.1,35.93Z"/><rect class="aplica-2" width="61.89" height="61.89"/></g></g>
</svg>
