<svg xmlns="http://www.w3.org/2000/svg" viewBox="0 0 65.59 65.59"><defs><style>.icon-1{fill:#4d4d4d;}</style></defs><title>contactar</title><g id="Layer_2" data-name="Layer 2"><g id="intro"><path class="icon-1" d="M32.8,65.59a32.8,32.8,0,1,1,32.8-32.8A32.83,32.83,0,0,1,32.8,65.59Zm0-64A31.2,31.2,0,1,0,64,32.8,31.24,31.24,0,0,0,32.8,1.59Z"/><path class="icon-1" d="M23.8,32.15h1.58A7.83,7.83,0,0,0,38.9,34.53h2a.68.68,0,0,0,.68-.68v-1.7h.31a1.35,1.35,0,0,0,1.35-1.35V27.36A1.35,1.35,0,0,0,42.19,26,8.48,8.48,0,0,0,39,21a10.12,10.12,0,0,0-6.17-2c-4.74,0-8.48,2.81-9.39,7a1.35,1.35,0,0,0-1,1.29V30.8a1.35,1.35,0,0,0,1.35,1.35Zm0-1.37v-3.4H25.3a7.84,7.84,0,0,0-.24,3.4Zm9,5.31a6.47,6.47,0,1,1,5.41-2.93H32.4a.68.68,0,1,0,0,1.37H37a6.43,6.43,0,0,1-4.21,1.56Zm7.45-2.93h-.47a7.77,7.77,0,0,0,.43-1h0Zm1.65-2.38H40.55a7.85,7.85,0,0,0-.24-3.4h1.61ZM32.8,20.43c3.94,0,7.06,2.22,8,5.59h-1a7.83,7.83,0,0,0-13.89,0h-1c.9-3.37,4-5.59,8-5.59Zm0,0"/><path class="icon-1" d="M39.83,37.76H25.76a3.94,3.94,0,0,0-3.94,3.94V47a.68.68,0,1,0,1.37,0V41.7a2.57,2.57,0,0,1,2.57-2.57H39.83A2.57,2.57,0,0,1,42.4,41.7V47a.68.68,0,0,0,1.37,0V41.7a3.94,3.94,0,0,0-3.94-3.94Zm0,0"/></g></g></svg>