<svg xmlns="http://www.w3.org/2000/svg" viewBox="0 0 61.89 61.89"><defs><style>.disfruta-2-1{fill:#470558;}.disfruta-2-2{fill:none;}</style></defs><title>disfruta</title><g id="Layer_2" data-name="Layer 2"><g id="intro"><path class="disfruta-2-1" d="M58.82,47.17l-4.56-4.09a.85.85,0,0,0-.55-.22,4.45,4.45,0,0,0-2.55.88,2.19,2.19,0,0,0,0-1.12l-1.71-6.28,6.52.21A2.54,2.54,0,0,0,58.46,34c0-.08,0-.24-1.24-5.67L57,27.23l-.75.89a4.46,4.46,0,0,1-2.82,1.55l-.57.08L53,31.06l-1.69-.69a9.14,9.14,0,0,1-2.42-2.44c-1.4-2-4.51-2.31-5.79-2.14-.08,0-.18,0-1,.27-1.82.5-5.61,1.53-8.56,2.13-.44.09-1,.14-1.51.2s-1.41.15-2.18.31a9.91,9.91,0,0,0-3.08,1.12,2.47,2.47,0,0,1-1.76.43c-.37-.66-1.35-3.29-2.15-5.43-1.55-4.14-2.52-6.69-3.07-7.32a2.91,2.91,0,0,0-2.3-1.17,1.55,1.55,0,0,0-1.22.73c-.48.76.38,7,.92,9.94,1.42,7.79,3,10.22,4,10.88.64.4,3,.65,15.68-.26l.38,0a43.75,43.75,0,0,0,6.41-.95l.4-.1,2.79,7.35a2.21,2.21,0,0,0,1.06,1.3l.3.13a5.6,5.6,0,0,0-1.87,2,.86.86,0,0,0,.2,1.09c.27.28,2.28,2.56,4,4.57a.88.88,0,0,0,.52.29h.23a.86.86,0,0,0,.66-.45s1.14-2.08,2.9-2.09a.87.87,0,0,0,.79-.51,4.26,4.26,0,0,1,2.61-1.59.86.86,0,0,0,.54-1.51ZM43.46,31.69a.92.92,0,0,0-.87-.63h-.16a1,1,0,0,0-.79,1.33l1.12,3.26a46,46,0,0,1-5.59.77l-.38,0c-12,.86-14.56.63-15,.43C19,35.14,17,19.3,17.26,17.62a.4.4,0,0,1,.29-.15,1.84,1.84,0,0,1,1.34.78,57.93,57.93,0,0,1,2.86,7c2.2,5.87,2.34,6.06,2.85,6.14a3.62,3.62,0,0,0,2.7-.53,8.79,8.79,0,0,1,2.76-1c.73-.15,1.41-.22,2.08-.29s1.12-.12,1.61-.22c3-.61,6.8-1.65,8.63-2.15l.89-.24c1.13-.15,3.67.18,4.69,1.65a10,10,0,0,0,2.81,2.79l3.65,1.51-.29-2.18a5.62,5.62,0,0,0,2.21-1.08c.42,1.85.92,4.1,1,4.44a1.38,1.38,0,0,1-1.38,1.35l-6.15-.2-1-4.22a.91.91,0,0,0-1-.68,1,1,0,0,0-.84,1.29L50,42.93a1.07,1.07,0,1,1-2.06.61ZM51.14,51c-1.63-1.86-2.49-2.83-3-3.35a3.12,3.12,0,0,1,2.28-1.37l2.83,3A5.61,5.61,0,0,0,51.14,51Zm3.63-2.42-2.95-3.17a2.66,2.66,0,0,1,1.56-.85l3.15,2.82A6.5,6.5,0,0,0,54.76,48.63Z"/><path class="disfruta-2-1" d="M49.78,28.42a4.82,4.82,0,1,0-2.13-3A4.78,4.78,0,0,0,49.78,28.42Zm-.54-6a3.66,3.66,0,1,1-.47,2.76A3.64,3.64,0,0,1,49.25,22.39Z"/><path class="disfruta-2-1" d="M17.83,32l0-.59-.59,0S14,31.7,10.7,32c-6.83.73-7.17,1.17-7.4,1.46a1.83,1.83,0,0,0-.46,1.59,1.49,1.49,0,0,0,.92,1,123.46,123.46,0,0,0,14.4,1.55,4.33,4.33,0,0,0,1.19-.1l.58-.21-.25-.57A36.62,36.62,0,0,1,17.83,32Zm.41,4.5A133.33,133.33,0,0,1,4.2,35c-.14-.06-.24-.14-.25-.21s0-.28.23-.55c.8-.46,6.92-1.17,12.63-1.62.29,1,1,2.75,1.5,3.86Z"/><path class="disfruta-2-1" d="M19.85,45.48H19v-.85a.5.5,0,1,0-1,0v.85h-.85a.5.5,0,1,0,0,1H18v.85a.5.5,0,1,0,1,0v-.85h.85a.5.5,0,1,0,0-1Z"/><path class="disfruta-2-1" d="M43.17,52.36h-.56V51.8a.33.33,0,0,0-.65,0v.56H41.4a.33.33,0,1,0,0,.65H42v.56a.33.33,0,0,0,.65,0V53h.56a.33.33,0,1,0,0-.65Z"/><path class="disfruta-2-1" d="M33.67,47.08A1.11,1.11,0,1,1,34.77,46,1.11,1.11,0,0,1,33.67,47.08Zm0-1.58a.47.47,0,1,0,.47.47A.47.47,0,0,0,33.67,45.5Z"/><rect class="disfruta-2-2" width="61.89" height="61.89"/></g></g></svg>
