<svg xmlns="http://www.w3.org/2000/svg" viewBox="0 0 65.59 65.59"><defs><style>.icon-1{fill:#4d4d4d;}</style></defs><title>disfrutar</title><g id="Layer_2" data-name="Layer 2"><g id="intro"><path class="icon-1" d="M32.8,65.59a32.8,32.8,0,1,1,32.8-32.8A32.83,32.83,0,0,1,32.8,65.59Zm0-64A31.2,31.2,0,1,0,64,32.8,31.24,31.24,0,0,0,32.8,1.59Z"/><path class="icon-1" d="M47.58,41.67,45.16,39.5a.45.45,0,0,0-.29-.12,2.36,2.36,0,0,0-1.35.47,1.16,1.16,0,0,0,0-.59l-.91-3.33L46,36a1.34,1.34,0,0,0,1.34-1.34s0-.13-.66-3l-.14-.6-.4.47a2.37,2.37,0,0,1-1.5.82l-.3,0,.09.7-.89-.37a4.84,4.84,0,0,1-1.28-1.29,3.51,3.51,0,0,0-3.07-1.14l-.55.14c-1,.26-3,.81-4.54,1.13-.23,0-.51.08-.8.11s-.75.08-1.16.16a5.26,5.26,0,0,0-1.63.59,1.31,1.31,0,0,1-.93.23c-.2-.35-.72-1.74-1.14-2.88a22.57,22.57,0,0,0-1.63-3.88,1.54,1.54,0,0,0-1.22-.62.82.82,0,0,0-.65.39c-.25.4.2,3.69.49,5.27.75,4.13,1.58,5.42,2.14,5.77.34.21,1.59.35,8.31-.14h.2a23.21,23.21,0,0,0,3.4-.5l.21-.06,1.48,3.9a1.17,1.17,0,0,0,.56.69l.16.07a3,3,0,0,0-1,1.08.46.46,0,0,0,.1.58c.14.15,1.21,1.36,2.14,2.42a.47.47,0,0,0,.28.15h.12a.46.46,0,0,0,.35-.24s.61-1.1,1.54-1.11a.46.46,0,0,0,.42-.27,2.26,2.26,0,0,1,1.38-.84.46.46,0,0,0,.29-.8Zm-8.15-8.21a.49.49,0,0,0-.46-.33h-.08a.54.54,0,0,0-.42.71l.6,1.73a24.41,24.41,0,0,1-3,.41h-.2c-6.39.46-7.72.34-7.94.23-1.49-.93-2.56-9.33-2.42-10.22a.21.21,0,0,1,.16-.08,1,1,0,0,1,.71.41A30.72,30.72,0,0,1,27.91,30c1.16,3.12,1.24,3.21,1.51,3.25A1.92,1.92,0,0,0,30.85,33a4.66,4.66,0,0,1,1.46-.53c.39-.08.75-.12,1.1-.15s.59-.06.85-.12c1.58-.32,3.61-.87,4.58-1.14l.47-.13a2.92,2.92,0,0,1,2.49.88,5.32,5.32,0,0,0,1.49,1.48l1.94.8-.15-1.16a3,3,0,0,0,1.17-.58c.22,1,.49,2.17.52,2.35a.73.73,0,0,1-.73.71l-3.26-.11-.52-2.24a.48.48,0,0,0-.55-.36.55.55,0,0,0-.44.68l1.64,6a.57.57,0,0,1-1.09.32ZM43.5,43.73,41.94,42a1.66,1.66,0,0,1,1.21-.72l1.5,1.61A3,3,0,0,0,43.5,43.73Zm1.92-1.28-1.56-1.68a1.41,1.41,0,0,1,.83-.45l1.67,1.49A3.45,3.45,0,0,0,45.43,42.45Z"/><path class="icon-1" d="M42.79,31.73a2.56,2.56,0,1,0-1.13-1.6A2.54,2.54,0,0,0,42.79,31.73Zm-.28-3.2A1.94,1.94,0,1,1,42.25,30,1.93,1.93,0,0,1,42.5,28.53Z"/><path class="icon-1" d="M25.84,33.63l0-.31-.31,0s-1.73.13-3.46.32c-3.62.39-3.8.62-3.92.78a1,1,0,0,0-.25.85.79.79,0,0,0,.49.52,65.48,65.48,0,0,0,7.64.82,2.3,2.3,0,0,0,.63-.06l.31-.11-.13-.3A19.41,19.41,0,0,1,25.84,33.63ZM26.06,36a70.71,70.71,0,0,1-7.45-.78c-.07,0-.12-.07-.13-.11s0-.15.12-.29A41.17,41.17,0,0,1,25.3,34c.16.53.54,1.46.8,2Z"/><path class="icon-1" d="M26.91,40.77h-.45v-.45a.26.26,0,1,0-.53,0v.45h-.45a.26.26,0,0,0,0,.53h.45v.45a.26.26,0,1,0,.53,0V41.3h.45a.26.26,0,1,0,0-.53Z"/><path class="icon-1" d="M39.28,44.43H39v-.3a.17.17,0,0,0-.35,0v.3h-.3a.17.17,0,1,0,0,.35h.3v.3a.17.17,0,1,0,.35,0v-.3h.3a.17.17,0,1,0,0-.35Z"/><path class="icon-1" d="M34.24,41.63a.59.59,0,1,1,.59-.59A.59.59,0,0,1,34.24,41.63Zm0-.84a.25.25,0,1,0,.25.25A.25.25,0,0,0,34.24,40.79Z"/></g></g></svg>