<svg xmlns="http://www.w3.org/2000/svg" viewBox="0 0 65.63 65.63"><defs><style>.cls-1{fill:#4d4d4d;}</style></defs><title>elegir</title><g id="Layer_2" data-name="Layer 2"><g id="intro"><path class="cls-1" d="M32.82,65.63A32.82,32.82,0,1,1,65.63,32.82,32.85,32.85,0,0,1,32.82,65.63Zm0-64A31.22,31.22,0,1,0,64,32.82,31.26,31.26,0,0,0,32.82,1.59Z"/><path class="cls-1" d="M33.79,51.72a1.3,1.3,0,0,1-.29,0H26.9c-2.84,0-3.22-1.64-3.26-1.91s-1.4-6.57-1.89-8.94a3.51,3.51,0,0,1,1.62-3.92h0L30.16,34l.6-9.37v0A2.06,2.06,0,0,1,32.68,23a2,2,0,0,1,2.19,1.68v0c0,.51.51,12.39.51,13.06a2.83,2.83,0,0,0,.43,1.88c.19.19.65.09.91,0l2.7-2.8a3.33,3.33,0,0,1,2-1.1,1.42,1.42,0,0,1,1.06.43A1.93,1.93,0,0,1,43,38.52c-.2.36-5,9.09-6.52,11.24C35.32,51.44,34.32,51.72,33.79,51.72Zm-.08-.91c.1,0,.89.09,2-1.57,1.45-2.11,6.42-11.08,6.47-11.17s.28-.59-.39-1.26a.51.51,0,0,0-.4-.17,2.55,2.55,0,0,0-1.36.82h0L37.25,40.4l-.07,0a1.82,1.82,0,0,1-2-.14,3.66,3.66,0,0,1-.69-2.52c0-.63-.49-12.4-.51-13,0-.17-.21-.87-1.29-.87-.73,0-1,.74-1,.9L31,34.66l-7.25,3.07a2.6,2.6,0,0,0-1.14,2.93c.51,2.43,1.88,8.89,1.89,9v0s.19,1.13,2.37,1.13h6.76Z"/><path class="cls-1" d="M21.91,29.57a4.83,4.83,0,1,1,4.83-4.83A4.83,4.83,0,0,1,21.91,29.57Zm0-8.66a3.83,3.83,0,1,0,3.83,3.83A3.83,3.83,0,0,0,21.91,20.91Z"/><path class="cls-1" d="M43.72,29.57a4.83,4.83,0,1,1,4.83-4.83A4.83,4.83,0,0,1,43.72,29.57Zm0-8.66a3.83,3.83,0,1,0,3.83,3.83A3.83,3.83,0,0,0,43.72,20.91Z"/><path class="cls-1" d="M36.19,27.95a.5.5,0,0,1-.39-.81,3.79,3.79,0,0,0,.84-2.39,3.83,3.83,0,1,0-7.66,0,3.79,3.79,0,0,0,.83,2.38.5.5,0,1,1-.78.62,4.78,4.78,0,0,1-1-3,4.83,4.83,0,1,1,8.59,3A.5.5,0,0,1,36.19,27.95Z"/></g></g></svg>