<svg xmlns="http://www.w3.org/2000/svg" viewBox="0 0 31.86 55.15">
  <defs><style>.elije-1{fill:#4fa932;}</style></defs>
  <title>elige</title><g id="Layer_2" data-name="Layer 2"><g id="intro"><path class="elije-1" d="M15.07,24.14l7.68-4.43V6.57L11.38,0,0,6.57V19.7l7.57,4.37c0-.44,0-8.63,0-10.6a2.91,2.91,0,0,1,2.91-2.86H12.2a2.91,2.91,0,0,1,2.91,2.91C15.1,15.49,15.09,23.67,15.07,24.14Z"/><path class="elije-1" d="M27,27.76h-.5a3.32,3.32,0,0,0-3.17-2.32H21.18a2.76,2.76,0,0,0-2.58-1.77H16.12V14a4.7,4.7,0,0,0-9.41,0V29.13c-4.17.5-6.18,4.12-6.18,8.35V39.7c0,8.52,5.7,15.45,14.22,15.45h4.13a13,13,0,0,0,13-13V36.36C31.86,30.4,29.66,27.76,27,27.76ZM11.77,11.34a2.77,2.77,0,0,1,2.35,2.77V24.51a1.17,1.17,0,0,0,1.17,1.17H18.6a.77.77,0,0,1,.77.77v.16a.84.84,0,0,0,.84.84h3.09a1.32,1.32,0,0,1,1.32,1.32v0a1,1,0,0,0,1,1H27c1.6,0,2.9,1.52,2.9,6.6v5.83a11,11,0,0,1-11,11H14.76c-7.43,0-12.22-6-12.22-13.46V37.48c0-3.54,1.64-6.41,5.17-6.41h0a1,1,0,0,0,1-1V14A2.71,2.71,0,0,1,11.77,11.34Z"/><path class="elije-1" d="M12.33,20.79H10.09a.53.53,0,0,1-.53-.53h0a.53.53,0,0,1,.53-.53h2.24a.53.53,0,0,1,.53.53h0A.53.53,0,0,1,12.33,20.79Z"/></g></g>
</svg>
