<svg xmlns="http://www.w3.org/2000/svg" viewBox="0 0 61.89 61.89">
  <defs><style>.elije-1{fill:#4fa932;}.elije-2{fill:none;}</style></defs><title>elije</title><g id="Layer_2" data-name="Layer 2"><g id="intro"><path class="elije-1" d="M30.09,27.51l7.68-4.43V9.94L26.39,3.37,15,9.94V23.07l7.57,4.37c0-.44,0-8.63,0-10.6A2.91,2.91,0,0,1,25.53,14h1.69a2.91,2.91,0,0,1,2.91,2.91C30.12,18.86,30.11,27,30.09,27.51Z"/><path class="elije-1" d="M42,31.13h-.5a3.32,3.32,0,0,0-3.17-2.32H36.2A2.76,2.76,0,0,0,33.62,27H31.14V17.39a4.7,4.7,0,0,0-9.41,0V32.5c-4.17.5-6.18,4.12-6.18,8.35v2.22c0,8.52,5.7,15.45,14.22,15.45h4.13a13,13,0,0,0,13-13V39.73C46.88,33.77,44.68,31.13,42,31.13ZM26.79,14.71a2.77,2.77,0,0,1,2.35,2.77V27.88A1.17,1.17,0,0,0,30.3,29h3.31a.77.77,0,0,1,.77.77V30a.84.84,0,0,0,.84.84h3.09a1.32,1.32,0,0,1,1.32,1.32v0a1,1,0,0,0,1,1H42c1.6,0,2.9,1.52,2.9,6.6v5.83a11,11,0,0,1-11,11H29.78c-7.43,0-12.22-6-12.22-13.46V40.85c0-3.54,1.64-6.41,5.17-6.41h0a1,1,0,0,0,1-1v-16A2.71,2.71,0,0,1,26.79,14.71Z"/><path class="elije-1" d="M27.35,24.16H25.11a.53.53,0,0,1-.53-.53h0a.53.53,0,0,1,.53-.53h2.24a.53.53,0,0,1,.53.53h0A.53.53,0,0,1,27.35,24.16Z"/><rect class="elije-2" width="61.89" height="61.89"/></g></g>
</svg>
