<svg xmlns="http://www.w3.org/2000/svg" viewBox="0 0 101.33 101.33"><defs><style>.cls-1{fill:#fff;}.cls-2{fill:none;}</style></defs><title>estrellas</title><g id="Layer_2" data-name="Layer 2"><g id="intro"><path class="cls-1" d="M58.06,62.74,45.39,55.81,38.46,43.14a1.49,1.49,0,0,0-2.62,0L28.91,55.81,16.24,62.74a1.5,1.5,0,0,0,0,2.62L28.91,72.3,35.83,85a1.5,1.5,0,0,0,2.63,0L45.39,72.3l12.67-6.93a1.5,1.5,0,0,0,0-2.62ZM43.57,69.88a1.5,1.5,0,0,0-.6.59L37.15,81.13,31.32,70.48a1.5,1.5,0,0,0-.59-.59L20.07,64.06l10.65-5.83a1.51,1.51,0,0,0,.59-.59L37.15,47,43,57.63a1.5,1.5,0,0,0,.6.59l10.65,5.83Z"/><path class="cls-1" d="M85.1,52.42,77.5,48.27l-4.15-7.59a1.5,1.5,0,0,0-2.62,0l-4.15,7.59L59,52.42A1.5,1.5,0,0,0,59,55l7.59,4.15,4.15,7.59a1.5,1.5,0,0,0,2.63,0L77.5,59.2,85.1,55a1.5,1.5,0,0,0,0-2.62Zm-9.41,4.36a1.49,1.49,0,0,0-.59.59L72,63,69,57.38a1.49,1.49,0,0,0-.59-.59l-5.58-3.05,5.58-3.05a1.49,1.49,0,0,0,.59-.59L72,44.51l3.05,5.58a1.49,1.49,0,0,0,.59.59l5.58,3.05Z"/><path class="cls-1" d="M58.36,25.31l-5.78-3.16-3.16-5.78a1.5,1.5,0,0,0-2.62,0l-3.16,5.78-5.78,3.16a1.5,1.5,0,0,0,0,2.63l5.78,3.16,3.16,5.78a1.5,1.5,0,0,0,2.63,0l3.16-5.78,5.78-3.16a1.49,1.49,0,0,0,0-2.62Zm-7.6,3.37a1.48,1.48,0,0,0-.59.59L48.11,33,46,29.27a1.49,1.49,0,0,0-.6-.59l-3.76-2.06,3.76-2.06A1.48,1.48,0,0,0,46,24l2.06-3.76L50.17,24a1.48,1.48,0,0,0,.59.59l3.77,2.06Z"/><rect class="cls-2" width="101.33" height="101.33"/></g></g></svg>