<svg xmlns="http://www.w3.org/2000/svg" viewBox="0 0 39.68 50.69"><defs><style>.cls-1{fill:#fff;}</style></defs><title>gota</title><g id="Layer_2" data-name="Layer 2"><g id="srvicios"><path class="cls-1" d="M21.29.58a2.11,2.11,0,0,0-2.91,0C17.64,1.3,0,18.16,0,29.49,0,41.18,8.9,50.69,19.84,50.69s19.84-9.52,19.84-21.21C39.68,18.16,22,1.3,21.29.58ZM19.84,46.47c-8.61,0-15.61-7.62-15.61-17,0-7.19,10.2-19,15.61-24.41,5.41,5.46,15.61,17.22,15.61,24.41C35.45,38.85,28.45,46.47,19.84,46.47Z"/><path class="cls-1" d="M11.79,29a2.11,2.11,0,0,0-2.06-2.15H9.68a2.12,2.12,0,0,0-2.11,2.06A16,16,0,0,0,12,39.69a2.31,2.31,0,0,0,3,.09,2.12,2.12,0,0,0,.09-3A12.14,12.14,0,0,1,11.79,29Z"/></g></g></svg>