<svg xmlns="http://www.w3.org/2000/svg" viewBox="0 0 89.81 89.81"><defs><style>.cls-1{opacity:0.4;}.cls-2{fill:#3ca52d;}</style></defs><title>hoja-verde</title><g id="Layer_2" data-name="Layer 2"><g id="srvicios"><g class="cls-1"><path class="cls-2" d="M85.44.15C83.67.21,42,1.8,23.05,20.71.28,43.48,8.62,61.23,14.84,69.18L1.2,82.82A4.1,4.1,0,0,0,7,88.61L20.61,75a29.33,29.33,0,0,0,18.48,6.69c10,0,20.12-5,30-14.91C88,47.85,89.6,6.14,89.67,4.37L89.81,0ZM63.31,61c-8.19,8.19-16.56,12.51-24.22,12.51a21.12,21.12,0,0,1-12.64-4.34l9.66-9.65,16.44,4a4.15,4.15,0,0,0,1,.12,4.1,4.1,0,0,0,1-8.08L42.89,52.71l8.26-8.26,9,2a4,4,0,0,0,.92.1,4.1,4.1,0,0,0,.91-8.09L58,37.61,68.55,27.06a4.09,4.09,0,0,0-5.79-5.79l-10.6,10.6-.94-4.07a4.09,4.09,0,0,0-8,1.83l2.08,9.08L37.05,47,34.23,35.27a4.09,4.09,0,1,0-8,1.91l4,16.57-9.61,9.61c-7.8-10.52-4.94-23.75,8.18-36.87C42.1,13.23,70.19,9.58,81.18,8.64,80.24,19.62,76.58,47.7,63.31,61Z"/></g></g></g></svg>