<svg xmlns="http://www.w3.org/2000/svg" viewBox="0 0 51.73 51.73"><defs><style>.cls-1{fill:#fff;}</style></defs><title>hoja</title><g id="Layer_2" data-name="Layer 2"><g id="srvicios"><path class="cls-1" d="M49.21.08c-1,0-25,.95-35.94,11.84C.16,25,5,35.27,8.55,39.85L.69,47.71A2.36,2.36,0,0,0,4,51l7.84-7.85A16.89,16.89,0,0,0,22.52,47c5.77,0,11.59-2.89,17.29-8.59C50.7,27.56,51.61,3.54,51.65,2.52L51.73,0Zm-12.74,35c-4.71,4.71-9.54,7.21-14,7.21a12.17,12.17,0,0,1-7.28-2.5l5.56-5.56,9.47,2.28a2.39,2.39,0,0,0,.55.07A2.36,2.36,0,0,0,31.37,32l-6.66-1.6,4.76-4.76,5.16,1.18a2.32,2.32,0,0,0,.53.06,2.36,2.36,0,0,0,.53-4.66l-2.27-.52,6.08-6.08a2.36,2.36,0,0,0-3.34-3.34L30,18.36,29.5,16a2.36,2.36,0,0,0-4.6,1.05l1.2,5.23-4.76,4.76-1.62-6.74a2.36,2.36,0,1,0-4.59,1.1L17.43,31,11.9,36.5c-4.49-6.06-2.84-13.68,4.71-21.24S40.43,5.52,46.76,5C46.22,11.3,44.11,27.48,36.47,35.12Z"/></g></g></svg>