<svg xmlns="http://www.w3.org/2000/svg" viewBox="0 0 52.54 52.54"><defs><style>.cls-1{fill:none;}.cls-2{fill:#fff;}</style></defs><title>home</title><g id="Layer_2" data-name="Layer 2"><g id="lineascroll"><rect class="cls-1" width="52.54" height="52.54"/><path class="cls-2" d="M40.21,29.36,27.68,16.82a2,2,0,0,0-2.81,0L12.33,29.36a2,2,0,0,1-2.81,0l-.66-.66a2,2,0,0,1,0-2.81l16-16a2,2,0,0,1,2.81,0l16,16a2,2,0,0,1,0,2.81l-.66.66A2,2,0,0,1,40.21,29.36Z"/><path class="cls-2" d="M33.46,27.39V38.77H19.08V27.39a.47.47,0,0,0-.8-.33l-4.37,4.37v9.49a2.33,2.33,0,0,0,2.33,2.33h20a2.33,2.33,0,0,0,2.33-2.33V31.43l-4.37-4.37A.47.47,0,0,0,33.46,27.39Z"/></g></g></svg>