<svg xmlns="http://www.w3.org/2000/svg" viewBox="0 0 354.89 2450.63"><defs><style>.homi-1{opacity:0.7;}.homi-2{fill:#fff;}.homi-3{fill:#00a99d;}</style></defs><title>homi_1</title><g id="Layer_2" data-name="Layer 2"><g id="intro"><g class="homi-1"><polygon class="homi-2" points="133.72 0 0 133.72 15.78 192.63 354.89 192.63 316.39 48.95 133.72 0"/></g><path class="homi-3" d="M212,124l-31-31a4.93,4.93,0,0,0-7,0l-31,31a4.92,4.92,0,0,1-7,0l-1.64-1.64a4.93,4.93,0,0,1,0-7L174,75.7a4.93,4.93,0,0,1,7,0l39.65,39.66a4.93,4.93,0,0,1,0,7L218.94,124A4.93,4.93,0,0,1,212,124Z"/><path class="homi-3" d="M195.25,119.09v28.18H159.63V119.09a1.16,1.16,0,0,0-2-.82l-10.81,10.82V152.6a5.77,5.77,0,0,0,5.77,5.77h49.64A5.77,5.77,0,0,0,208,152.6V129.09l-10.81-10.82A1.16,1.16,0,0,0,195.25,119.09Z"/><g class="homi-1"><polygon class="homi-2" points="133.72 2258 0 2391.72 15.78 2450.63 354.89 2450.63 316.39 2306.95 133.72 2258"/></g></g></g></svg>
