<svg xmlns="http://www.w3.org/2000/svg" viewBox="0 0 52.54 52.54"><defs><style>.cls-1{fill:#fff;}.cls-2{fill:none;}</style></defs><title>industrie</title><g id="Layer_2" data-name="Layer 2"><g id="lineascroll"><path class="cls-1" d="M42.39,43.39H10.15a2,2,0,0,1-2-2V28l9.63-4.38a.47.47,0,0,1,.67.43v3.17h1.89v-2.5L30,20.38a.47.47,0,0,1,.67.43v6.45h1.84V11.71A1.69,1.69,0,0,1,34.18,10H39l5.4,3.9V41.39A2,2,0,0,1,42.39,43.39ZM11.24,40.3H41.3V15.5L38,13.11H35.58V29.22a1.13,1.13,0,0,1-1.13,1.13H28.69a1.13,1.13,0,0,1-1.13-1.13V24.88l-4.12,1.88v2.47a1.13,1.13,0,0,1-1.13,1.13H16.5a1.13,1.13,0,0,1-1.13-1.13V28.16L11.24,30Z"/><rect class="cls-1" x="15.32" y="33.59" width="3.27" height="2.33"/><rect class="cls-1" x="20.14" y="33.59" width="3.27" height="2.33"/><rect class="cls-1" x="27.51" y="33.59" width="3.27" height="2.33"/><rect class="cls-1" x="32.33" y="33.59" width="3.27" height="2.33"/><rect class="cls-2" width="52.54" height="52.54"/></g></g></svg>