<svg xmlns="http://www.w3.org/2000/svg" viewBox="0 0 42.63 40.03"><defs><style>.industria-1{fill:#e69700;}</style></defs><title>industria</title><g id="Layer_2" data-name="Layer 2"><g id="intro"><path class="industria-1" d="M40,0H31.43a2.66,2.66,0,0,0-2.64,2.68V21H25.21l.07-8.92L15,16.85V21H11.37V15.88L0,21.14V37a3,3,0,0,0,2.93,3H39.71a3,3,0,0,0,2.93-3V2.68A2.66,2.66,0,0,0,40,0ZM10.17,24.9h6.63a2,2,0,0,0,1.94-2V19.26l3.41-1.58v5.24a2,2,0,0,0,1.94,2h7.59a2,2,0,0,0,1.94-2V4.9h4.21V35.13h-33V24.29l3.41-1.58v.21A2,2,0,0,0,10.17,24.9Z"/><rect class="industria-1" x="8.82" y="27.99" width="3.73" height="2.71"/><rect class="industria-1" x="14.33" y="27.99" width="3.73" height="2.71"/><rect class="industria-1" x="22.73" y="27.99" width="3.73" height="2.71"/><rect class="industria-1" x="28.24" y="27.99" width="3.73" height="2.71"/></g></g></svg>