<svg xmlns="http://www.w3.org/2000/svg" viewBox="0 0 354.89 192.63"><defs><style>.industrial-1{opacity:0.7;}.industrial-2{fill:#fff;}.industrial-3{fill:#162e3e;}</style></defs><title>industrial</title><g id="Layer_2" data-name="Layer 2"><g id="intro"><g class="industrial-1"><polygon class="industrial-2" points="133.72 0 0 133.72 15.78 192.63 354.89 192.63 316.39 48.95 133.72 0"/></g><path class="industrial-3" d="M217.88,160.47H127.22a5.62,5.62,0,0,1-5.62-5.62V117.3L148.68,105a1.34,1.34,0,0,1,1.89,1.22v8.9h5.32v-7L183,95.75A1.33,1.33,0,0,1,184.87,97V115.1H190V71.37a4.76,4.76,0,0,1,4.76-4.76h13.51l15.2,11v77.27A5.62,5.62,0,0,1,217.88,160.47Zm-87.6-8.69h84.53V82L205.5,75.3h-6.77v45.3a3.18,3.18,0,0,1-3.19,3.18H179.36a3.18,3.18,0,0,1-3.18-3.18V108.39l-11.6,5.28v6.93a3.18,3.18,0,0,1-3.18,3.18H145.07a3.19,3.19,0,0,1-3.19-3.18v-3l-11.59,5.28Z"/><rect class="industrial-3" x="141.75" y="132.89" width="9.2" height="6.56"/><rect class="industrial-3" x="155.32" y="132.89" width="9.2" height="6.56"/><rect class="industrial-3" x="176.04" y="132.89" width="9.2" height="6.56"/><rect class="industrial-3" x="189.61" y="132.89" width="9.2" height="6.56"/></g></g></svg>
