<svg xmlns="http://www.w3.org/2000/svg" viewBox="0 0 101.33 101.33"><defs><style>.cls-1{fill:#fff;}.cls-2{fill:none;}</style></defs><title>lapiz</title><g id="Layer_2" data-name="Layer 2"><g id="intro"><g id="Pencil"><path class="cls-1" d="M86.23,34.52a10.7,10.7,0,0,0-15.13,0l-32.19,32a1.77,1.77,0,0,0-.43.67l-7.28,20a1.82,1.82,0,0,0,1.71,2.44,1.76,1.76,0,0,0,.53-.08L51.57,84a1.84,1.84,0,0,0,.75-.45L86.24,49.66a10.7,10.7,0,0,0,0-15.14ZM49.47,80.86l-6.78,2.08a7.76,7.76,0,0,0-1.85-3,9.87,9.87,0,0,0-2.47-1.75l3.1-8.54h4.19v3.64a1.82,1.82,0,0,0,1.82,1.82H50.7Zm26.81-26.4L54.09,76.66l.64-3a1.82,1.82,0,0,0-1.78-2.2H49.3V67.81A1.82,1.82,0,0,0,47.48,66H44.61L66.27,44.45l0,0a7.06,7.06,0,1,1,10,10Zm7.37-7.38L82,48.79a10.66,10.66,0,0,0-10-10l1.71-1.69h0a7.06,7.06,0,1,1,10,10Zm-12-.6L53.48,64.7a1.82,1.82,0,0,0,2.58,2.58L74.27,49.06a1.82,1.82,0,0,0-2.58-2.58Z"/></g><path class="cls-1" d="M28.09,10.62c8-.41,9.42,7.18,8,13.61-1.8,8.05-8.85,14.19-14,20.27S12.75,57.05,12,65c-1,11.24,7.46,21.1,15,28.3,1.4,1.34,3.52-.78,2.12-2.12-8.8-8.41-17.16-19.24-12.84-32,3-8.77,10.64-15.39,16.3-22.44,4.94-6.15,9.41-15,6.17-23-1.68-4.13-6.36-6.4-10.69-6.18-1.92.1-1.93,3.1,0,3Z"/><rect class="cls-2" width="101.33" height="101.33"/></g></g></svg>