<svg xmlns="http://www.w3.org/2000/svg" viewBox="0 0 101.33 101.33"><defs><style>.cls-1{fill:#fff;}.cls-2{fill:none;}</style></defs><title>lavado</title><g id="Layer_2" data-name="Layer 2"><g id="intro"><path class="cls-1" d="M21.89,25.77A12.25,12.25,0,1,0,34.14,38,12.26,12.26,0,0,0,21.89,25.77Zm0,21A8.75,8.75,0,1,1,30.64,38,8.76,8.76,0,0,1,21.89,46.76Z"/><path class="cls-1" d="M22.77,11.78a6.12,6.12,0,1,0,6.12,6.12A6.13,6.13,0,0,0,22.77,11.78Zm0,8.75a2.62,2.62,0,1,1,2.62-2.62A2.63,2.63,0,0,1,22.77,20.52Z"/><path class="cls-1" d="M47.26,3a6.12,6.12,0,1,0,6.12,6.12A6.13,6.13,0,0,0,47.26,3Zm0,8.75a2.63,2.63,0,1,1,2.62-2.63A2.63,2.63,0,0,1,47.26,11.78Z"/><path class="cls-1" d="M37.64,15.28a7,7,0,1,0,7,7A7,7,0,0,0,37.64,15.28Zm0,10.5a3.5,3.5,0,1,1,3.5-3.5A3.5,3.5,0,0,1,37.64,25.77Z"/><path class="cls-1" d="M44.63,32.77a8.75,8.75,0,1,0,8.75,8.75A8.76,8.76,0,0,0,44.63,32.77Zm0,14a5.25,5.25,0,1,1,5.25-5.25A5.25,5.25,0,0,1,44.63,46.76Z"/><path class="cls-1" d="M37.64,50.26A8.75,8.75,0,1,0,46.38,59,8.76,8.76,0,0,0,37.64,50.26Zm0,14A5.25,5.25,0,1,1,42.88,59,5.25,5.25,0,0,1,37.64,64.26Z"/><path class="cls-1" d="M89.64,50.8,69.85,31a7,7,0,0,0-9.9,0l-3.62,3.62a1.75,1.75,0,1,0,2.47,2.47l3.63-3.62a3.5,3.5,0,0,1,4.95,0L87.16,53.28a3.5,3.5,0,0,1,0,4.94L51.57,93.8a3.45,3.45,0,0,1-2.46,1h0a3.46,3.46,0,0,1-2.48-1L26.84,74a3.49,3.49,0,0,1,0-4.94l.6-.6A1.75,1.75,0,0,0,25,66l-.6.6a7,7,0,0,0,0,9.89L44.16,96.27a6.94,6.94,0,0,0,4.95,2h0a6.93,6.93,0,0,0,4.94-2l35.6-35.59a7,7,0,0,0,0-9.88Z"/><path class="cls-1" d="M67.38,65.94h-14a1.75,1.75,0,1,0,0,3.5h14a1.75,1.75,0,0,0,0-3.5Z"/><path class="cls-1" d="M63.88,72.94H39.39a1.75,1.75,0,0,0,0,3.5H63.88a1.75,1.75,0,0,0,0-3.5Z"/><path class="cls-1" d="M51.63,81.69h-7a1.75,1.75,0,1,0,0,3.5h7a1.75,1.75,0,0,0,0-3.5Z"/><rect class="cls-2" width="101.33" height="101.33"/></g></g></svg>