<svg xmlns="http://www.w3.org/2000/svg" viewBox="0 0 28.75 21.61"><defs><style>.cls-1{fill:#fff;}</style></defs><title>letter</title><g id="Layer_2" data-name="Layer 2"><g id="intro"><path class="cls-1" d="M23.93,0H4.82A4.8,4.8,0,0,0,0,4.82v12a4.8,4.8,0,0,0,4.82,4.82H23.93a4.8,4.8,0,0,0,4.82-4.82v-12A4.8,4.8,0,0,0,23.93,0ZM5,2H24.11a3.13,3.13,0,0,1,3,2.8L16.25,11.07a4.57,4.57,0,0,1-3.75,0L2,5A3.13,3.13,0,0,1,5,2ZM2,17V7.08l5.79,3.36L2,17.47A2.65,2.65,0,0,1,2,17Zm22.14,3H5a3,3,0,0,1-2-.85l6.37-7.8,2.29,1.33a5.25,5.25,0,0,0,2.86.71,4.88,4.88,0,0,0,2.86-.71l2.24-1.3L26,19.27A3,3,0,0,1,24.11,20Zm3-3a2.7,2.7,0,0,1-.11.73l-5.9-7.23,6-3.49V17Z"/></g></g></svg>