<svg xmlns="http://www.w3.org/2000/svg" xmlns:xlink="http://www.w3.org/1999/xlink" viewBox="0 0 118.48 151.48"><defs><style>.cls-1{fill:url(#linear-gradient);}</style><linearGradient id="linear-gradient" x1="59.24" y1="6.28" x2="59.24" y2="154.26" gradientUnits="userSpaceOnUse"><stop offset="0" stop-color="#0071bc"/><stop offset="0.17" stop-color="#0082b3"/><stop offset="0.46" stop-color="#0097a7"/><stop offset="0.74" stop-color="#00a59f"/><stop offset="1" stop-color="#00a99d"/></linearGradient></defs><title>logo-color</title><g id="Layer_2" data-name="Layer 2"><g id="intro"><path class="cls-1" d="M57,100.51,17.29,74.78v28.64L57,129v22.43L46.34,144.6l-29-18.82v.08L0,114.7V41.29L17.29,52.4v0L57,78ZM51,68.26V27.67L19.52,48,2.13,36.86,59.24,0l57.11,36.86L99,48,68.29,28.19V67.75l-9,5.81Zm67.49,18.53-17.29,11.1V80.3l17.29-11.15Zm0-23.46L78.78,89.18v29l39.7-25.66V114.7l-57,36.78V78l57-36.76Z"/></g></g></svg>