<svg xmlns="http://www.w3.org/2000/svg" viewBox="0 0 141.61 68.93"><defs><style>.svg-white{fill:#fff;}</style></defs><title>logo-white</title><g id="Layer_2" data-name="Layer 2"><g id="header"><path class="svg-white" d="M25.93,45.73,7.87,34v13L25.93,58.72V68.93L21.08,65.8,7.87,57.23v0L0,52.19V18.79l7.87,5.06h0L25.93,35.51ZM23.2,31.06V12.59L8.88,21.86,1,16.77,27,0l26,16.77L45,21.86l-14-9v18L27,33.47Zm30.71,8.43L46,44.54v-8l7.87-5.08Zm0-10.68L35.85,40.58V53.79L53.91,42.11V52.19L28,68.93V35.51L53.91,18.79Z"/><path class="svg-white" d="M72.46,20.52c-6.6,0-6.6,10.17,0,10.17a7.14,7.14,0,0,0,3.22-.75l.45,3.45a10.65,10.65,0,0,1-3.66.7c-11.31,0-11.29-16.93,0-16.93a8.12,8.12,0,0,1,3.29.65l-.4,3.43A5.66,5.66,0,0,0,72.46,20.52Z"/><path class="svg-white" d="M87.1,34V27.38h-5V34H78.78V17.38h3.33V24h5V17.38h3.33V34Z"/><path class="svg-white" d="M94.19,34V17.38h8.35v3.34h-5V24h4.38v3.33H97.53v3.33h5.29V34Z"/><path class="svg-white" d="M120.17,17.12h1V34h-3.38l0-9.3-4.27,4.48-4.27-4.48V34h-3.38V17.12H107l6.58,7.32Z"/><path class="svg-white" d="M125,34V17.38h3.33V34Z"/><path class="svg-white" d="M131.72,29.48a7.49,7.49,0,0,0,4.76,1.33,1.68,1.68,0,0,0,1.72-1.68c-.07-1-.79-1.38-1.72-1.7-2.61-1-4.94-2.29-4.94-5.08a4.89,4.89,0,0,1,4.71-5.08,9.85,9.85,0,0,1,4.15.7L140,21.18a7.59,7.59,0,0,0-3.41-.7,1.65,1.65,0,0,0-1.66,1.87c.09.93.91,1.35,1.87,1.68,2.59,1,4.83,2.45,4.83,5.11a5,5,0,0,1-5,5.06A10.43,10.43,0,0,1,131.3,33Z"/><path class="svg-white" d="M72.2,40.07c-6.42,0-6.42,9.9,0,9.9a7,7,0,0,0,3.13-.73l.43,3.36a10.36,10.36,0,0,1-3.57.68c-11,0-11-16.48,0-16.48a7.91,7.91,0,0,1,3.2.64L75,40.78A5.53,5.53,0,0,0,72.2,40.07Z"/><path class="svg-white" d="M86.47,53.24V46.75H81.61v6.49H78.36V37h3.25V43.5h4.86V37h3.25V53.24Z"/><path class="svg-white" d="M101.45,53.24,98.18,47H96.62v6.2H93.37V37h6.4c5.79,0,6.36,8.15,1.59,9.54l3.77,6.7Zm-4.84-9.36h2.86c2.2,0,2.2-3.63,0-3.63H96.62Z"/><path class="svg-white" d="M115.1,36.74c11.17,0,11.17,16.73,0,16.73S103.93,36.74,115.1,36.74Zm0,3.34c-6.5,0-6.5,10,0,10S121.59,40.07,115.1,40.07Z"/><path class="svg-white" d="M140.38,36.76h1V53.24H138.1l0-9.06L134,48.54l-4.16-4.36v9.06h-3.29V36.76h1l6.4,7.13Z"/></g></g></svg>
