<svg xmlns="http://www.w3.org/2000/svg" xmlns:xlink="http://www.w3.org/1999/xlink" viewBox="0 0 68.8 87.96"><defs><style>.logo-blanco-1{fill:url(#linear-gradient);}</style><linearGradient id="linear-gradient" x1="34.4" y1="3.65" x2="34.4" y2="89.58" gradientUnits="userSpaceOnUse"><stop offset="0" stop-color="#fff" stop-opacity="0.2"/><stop offset="0.08" stop-color="#fff" stop-opacity="0.34"/><stop offset="0.19" stop-color="#fff" stop-opacity="0.52"/><stop offset="0.31" stop-color="#fff" stop-opacity="0.66"/><stop offset="0.43" stop-color="#fff" stop-opacity="0.79"/><stop offset="0.55" stop-color="#fff" stop-opacity="0.88"/><stop offset="0.68" stop-color="#fff" stop-opacity="0.95"/><stop offset="0.82" stop-color="#fff" stop-opacity="0.99"/><stop offset="1" stop-color="#fff"/></linearGradient></defs><title>logo-blanco</title><g id="Layer_2" data-name="Layer 2"><g id="intro"><path class="logo-blanco-1" d="M33.09,58.36,10,43.42V60.06L33.09,74.94V88l-6.19-4L10,73v0L0,66.6V24l10,6.46h0L33.09,45.32ZM29.61,39.64V16.07L11.34,27.89,1.24,21.4,34.4,0,67.56,21.4l-10.1,6.49L39.65,16.37v23L34.4,42.72ZM68.8,50.4l-10,6.45V46.63l10-6.48Zm0-13.62-23.05,15V68.64L68.8,53.74V66.6L35.71,88V45.32L68.8,24Z"/></g></g></svg>