<svg xmlns="http://www.w3.org/2000/svg" viewBox="0 0 43.71 43.71"><defs><style>.mail-1{fill:#fff;}.mail-2{fill:none;}</style></defs><title>mail</title><g id="Layer_2" data-name="Layer 2"><g id="intro"><path class="mail-1" d="M31.41,13H12.3a4.8,4.8,0,0,0-4.82,4.82v12a4.8,4.8,0,0,0,4.82,4.82H31.41a4.8,4.8,0,0,0,4.82-4.82v-12A4.8,4.8,0,0,0,31.41,13ZM12.48,15H31.59a3.13,3.13,0,0,1,3,2.8L23.73,24.12a4.57,4.57,0,0,1-3.75,0L9.45,18a3.13,3.13,0,0,1,3-3Zm-3,15V20.13l5.79,3.36-5.74,7A2.65,2.65,0,0,1,9.44,30Zm22.14,3H12.48a3,3,0,0,1-2-.85l6.37-7.8,2.29,1.33a5.25,5.25,0,0,0,2.86.71,4.88,4.88,0,0,0,2.86-.71L27,24.42l6.44,7.89A3,3,0,0,1,31.59,33.05Zm3-3a2.7,2.7,0,0,1-.11.73l-5.9-7.23,6-3.49V30Z"/><rect class="mail-2" width="43.71" height="43.71"/></g></g></svg>