<svg xmlns="http://www.w3.org/2000/svg" viewBox="0 0 43.71 43.71"><defs><style>.phone-1{fill:#fff;}.cls-2{fill:none;}</style></defs><title>phone</title><g id="Layer_2" data-name="Layer 2"><g id="intro"><g id="smartphone"><path class="phone-1" d="M28.69,38.76H15a3.19,3.19,0,0,1-3.18-3.18V8A3.19,3.19,0,0,1,15,4.79H28.69A3.19,3.19,0,0,1,31.87,8v27.6A3.19,3.19,0,0,1,28.69,38.76ZM15,6.91A1.06,1.06,0,0,0,14,8v27.6A1.06,1.06,0,0,0,15,36.64H28.69a1.06,1.06,0,0,0,1.06-1.06V8a1.06,1.06,0,0,0-1.06-1.06Z"/><path class="phone-1" d="M23.87,33.85a2,2,0,1,0-1.69,1.69A2,2,0,0,0,23.87,33.85Z"/><rect class="phone-1" x="12.9" y="8.71" width="17.91" height="2.12"/><rect class="phone-1" x="12.9" y="28.49" width="17.91" height="2.12"/></g><rect class="cls-2" width="43.71" height="43.71"/></g></g></svg>