<svg xmlns="http://www.w3.org/2000/svg" viewBox="0 0 43.71 43.71"><defs><style>.place-1{fill:#fff;}.place-2{fill:none;}</style></defs><title>place</title><g id="Layer_2" data-name="Layer 2"><g id="intro"><path class="place-1" d="M31.54,11.87a10.89,10.89,0,0,0-9.72-5.73,11.69,11.69,0,0,0-5.9,1.74C10.71,11,9.15,18.12,12.27,23.5l7.29,12.67a2.71,2.71,0,0,0,2.26,1.39,2.71,2.71,0,0,0,2.26-1.39L31.54,23a11,11,0,0,0,0-11.11ZM30,22.29c0,.17-7.46,13-7.46,13a.65.65,0,0,1-.69.52.93.93,0,0,1-.69-.52L13.84,22.63a9.65,9.65,0,0,1,3-13.19,10.45,10.45,0,0,1,5-1.39A9.46,9.46,0,0,1,30,22.29Z"/><path class="place-1" d="M21.82,13.26a4.34,4.34,0,1,0,4.34,4.34A4.3,4.3,0,0,0,21.82,13.26Zm0,6.94a2.6,2.6,0,1,1,2.6-2.6A2.67,2.67,0,0,1,21.82,20.2Z"/><rect class="place-2" width="43.71" height="43.71"/></g></g></svg>