<svg xmlns="http://www.w3.org/2000/svg" viewBox="0 0 61.89 61.89">
  <defs><style>.pule-1{fill:#4fa932;}.pule-2{fill:none;}</style></defs><title>pule</title><g id="Layer_2" data-name="Layer 2"><g id="intro"><path class="pule-1" d="M33.59,53.63H13.9a4.07,4.07,0,0,0-4.07,4.07v1H37.66v-1A4.07,4.07,0,0,0,33.59,53.63ZM11.94,56.74l.22-.3a2.16,2.16,0,0,1,1.74-.88h19.7a2.16,2.16,0,0,1,1.73.88l.22.3Z"/><path class="pule-1" d="M27.08,29.71h-3.9A4.18,4.18,0,0,0,20,31.18l-1,1.14a4.59,4.59,0,0,0-1.1,3v3.18h12.4V33A3.25,3.25,0,0,0,27.08,29.71Zm1.33,6.85H19.85V35.3a2.66,2.66,0,0,1,.64-1.73l1-1.14a2.26,2.26,0,0,1,1.72-.79h3.9A1.33,1.33,0,0,1,28.41,33Z"/><path class="pule-1" d="M49.13,3.24a2.58,2.58,0,1,0,2.59,2.58A2.59,2.59,0,0,0,49.13,3.24Zm0,3.25a.67.67,0,1,1,.67-.67A.67.67,0,0,1,49.13,6.49Z"/><path class="pule-1" d="M45.06,44.5a7,7,0,1,0,7,7A7,7,0,0,0,45.06,44.5Zm0,12.09a5.09,5.09,0,1,1,5.09-5.09A5.09,5.09,0,0,1,45.06,56.6Z"/><path class="pule-1" d="M48.24,10.58a1.38,1.38,0,0,0-.87-.82,3.73,3.73,0,0,1-1.43-.85A1.92,1.92,0,0,0,44.3,8.2a1.83,1.83,0,0,0-1.35,1L34.11,24.48l0,16H16a5,5,0,0,0-5,5v6.44H36.42l-.12-1.07a6.73,6.73,0,0,1,0-.76,6.65,6.65,0,0,1,3.34-5.75l.48-.28V25.73l0,0,8-13.91A1.39,1.39,0,0,0,48.24,10.58ZM38.17,25.22V43l-.08.06a8.59,8.59,0,0,0-3.73,6.79V50H12.9V45.48A3.09,3.09,0,0,1,16,42.4H36L36,25l0,0,8.5-14.71.18.16a5.43,5.43,0,0,0,1.27.86l.18.09Z"/><rect class="pule-2" width="61.89" height="61.89"/></g></g>
</svg>
