<svg xmlns="http://www.w3.org/2000/svg" viewBox="0 0 65.63 65.63"><defs><style>.cls-1{fill:#4d4d4d;}</style></defs><title>pulir</title><g id="Layer_2" data-name="Layer 2"><g id="intro"><path class="cls-1" d="M32.82,65.63A32.82,32.82,0,1,1,65.63,32.82,32.85,32.85,0,0,1,32.82,65.63Zm0-64A31.22,31.22,0,1,0,64,32.82,31.26,31.26,0,0,0,32.82,1.59Z"/><path class="cls-1" d="M34.82,43H24.37a2.16,2.16,0,0,0-2.16,2.16v.51H37v-.51A2.16,2.16,0,0,0,34.82,43ZM23.33,44.68l.12-.16a1.15,1.15,0,0,1,.92-.47H34.82a1.14,1.14,0,0,1,.92.47l.12.16Z"/><path class="cls-1" d="M31.37,30.33H29.3a2.22,2.22,0,0,0-1.69.78l-.52.6a2.44,2.44,0,0,0-.58,1.58V35h6.58V32.06A1.72,1.72,0,0,0,31.37,30.33Zm.7,3.63H27.53V33.3a1.41,1.41,0,0,1,.34-.92l.52-.6a1.2,1.2,0,0,1,.91-.42h2.07a.7.7,0,0,1,.7.7Z"/><path class="cls-1" d="M43.07,16.29a1.37,1.37,0,1,0,1.37,1.37A1.37,1.37,0,0,0,43.07,16.29Zm0,1.72a.35.35,0,1,1,.35-.35A.35.35,0,0,1,43.07,18Z"/><path class="cls-1" d="M40.91,38.18a3.72,3.72,0,1,0,3.72,3.72A3.72,3.72,0,0,0,40.91,38.18Zm0,6.42a2.7,2.7,0,1,1,2.7-2.7A2.7,2.7,0,0,1,40.91,44.6Z"/><path class="cls-1" d="M42.6,20.18a.73.73,0,0,0-.46-.44,2,2,0,0,1-.76-.45,1,1,0,0,0-.87-.38,1,1,0,0,0-.72.52L35.1,27.56l0,8.49h-9.6a2.66,2.66,0,0,0-2.65,2.65v3.42h13.5l-.07-.57a3.57,3.57,0,0,1,0-.41A3.53,3.53,0,0,1,38,38.1l.26-.15V28.2l4.26-7.38A.74.74,0,0,0,42.6,20.18ZM37.25,28v9.42l0,0a4.56,4.56,0,0,0-2,3.6v.1H23.84v-2.4a1.64,1.64,0,0,1,1.64-1.64H36.1l0-9.23v0L40.64,20l.09.09a2.88,2.88,0,0,0,.67.46l.1,0Z"/></g></g></svg>