<svg xmlns="http://www.w3.org/2000/svg" viewBox="0 0 182.39 182.39"><defs><style>.shine-1{opacity:0.3;}.shine-2{fill:#fff;}.shine-3{fill:none;}</style></defs><title>shine</title><g id="Layer_2" data-name="Layer 2"><g id="intro"><g class="shine-1"><path class="shine-2" d="M104.5,112.93,81.69,100.46,69.22,77.65a2.69,2.69,0,0,0-4.72,0L52,100.46l-22.8,12.47a2.69,2.69,0,0,0,0,4.72L52,130.12l12.47,22.8a2.69,2.69,0,0,0,4.72,0l12.47-22.8,22.81-12.47a2.7,2.7,0,0,0,0-4.72ZM78.42,125.78a2.69,2.69,0,0,0-1.07,1.07L66.86,146,56.37,126.85a2.71,2.71,0,0,0-1.07-1.07L36.12,115.29,55.3,104.8a2.72,2.72,0,0,0,1.07-1.07L66.86,84.56l10.49,19.18a2.71,2.71,0,0,0,1.07,1.07l19.17,10.49Z"/><path class="shine-2" d="M153.16,94.35,139.5,86.87,132,73.21a2.69,2.69,0,0,0-4.72,0l-7.48,13.67-13.67,7.47a2.69,2.69,0,0,0,0,4.72l13.67,7.47,7.48,13.67a2.69,2.69,0,0,0,4.72,0l7.47-13.67,13.67-7.47a2.69,2.69,0,0,0,0-4.72Zm-16.94,7.85a2.68,2.68,0,0,0-1.07,1.07l-5.49,10-5.49-10a2.69,2.69,0,0,0-1.07-1.07l-10-5.49,10-5.49a2.68,2.68,0,0,0,1.07-1.07l5.49-10,5.49,10a2.68,2.68,0,0,0,1.07,1.07l10,5.49Z"/><path class="shine-2" d="M105,45.55l-10.4-5.69-5.69-10.4a2.69,2.69,0,0,0-4.72,0l-5.69,10.4-10.4,5.69a2.69,2.69,0,0,0,0,4.72L78.53,56l5.69,10.41a2.69,2.69,0,0,0,4.72,0L94.64,56,105,50.28a2.69,2.69,0,0,0,0-4.72ZM91.36,51.62a2.67,2.67,0,0,0-1.07,1.07l-3.71,6.78-3.71-6.78a2.68,2.68,0,0,0-1.07-1.07L75,47.91l6.77-3.71a2.67,2.67,0,0,0,1.07-1.07l3.71-6.78,3.71,6.78a2.67,2.67,0,0,0,1.07,1.07l6.78,3.71Z"/><rect class="shine-3" width="182.39" height="182.39"/></g></g></g></svg>