<svg xmlns="http://www.w3.org/2000/svg" viewBox="0 0 101 227.56"><defs><style>.cls-1{opacity:0.4;}.cls-2,.cls-3{fill:none;}.cls-2,.cls-5{stroke:#00a89c;stroke-width:2px;}.cls-2,.cls-3,.cls-4,.cls-5{stroke-miterlimit:10;}.cls-3,.cls-4{stroke:#b2b2b2;stroke-width:3px;}.cls-4{fill:#b2b2b2;}.cls-5{fill:#00a89c;}.cls-6{fill:#4d4d4d;opacity:0.2;}</style></defs><title>texture</title><g id="Layer_2" data-name="Layer 2"><g id="intro"><g class="cls-1"><path class="cls-2" d="M37.5,102.73l10,5.77v11.55l-10,5.77-10-5.77V108.51Z"/></g><g class="cls-1"><path class="cls-3" d="M37.5,73.73l10,5.77V91.05l-10,5.77-10-5.77V79.51Z"/></g><g class="cls-1"><path class="cls-3" d="M11.5,58.73l10,5.77V76.05l-10,5.77-10-5.77V64.51Z"/></g><g class="cls-1"><path class="cls-3" d="M11.5,29.73l10,5.77V47.05l-10,5.77-10-5.77V35.51Z"/></g><g class="cls-1"><path class="cls-3" d="M63.5,58.73l10,5.77V76.05l-10,5.77-10-5.77V64.51Z"/></g><g class="cls-1"><path class="cls-3" d="M63.5,29.73l10,5.77V47.05l-10,5.77-10-5.77V35.51Z"/></g><g class="cls-1"><path class="cls-3" d="M11.5,1.73l10,5.77V19.05l-10,5.77-10-5.77V7.51Z"/></g><g class="cls-1"><path class="cls-3" d="M63.5,116.73l10,5.77v11.55l-10,5.77-10-5.77V122.51Z"/></g><g class="cls-1"><path class="cls-4" d="M63.5,173.73l10,5.77v11.55l-10,5.77-10-5.77V179.51Z"/></g><g class="cls-1"><path class="cls-5" d="M63.5,202.73l10,5.77v11.55l-10,5.77-10-5.77V208.51Z"/></g><g class="cls-1"><path class="cls-4" d="M11.5,202.73l10,5.77v11.55l-10,5.77-10-5.77V208.51Z"/></g><g class="cls-1"><path class="cls-5" d="M11.5,144.73l10,5.77v11.55l-10,5.77-10-5.77V150.51Z"/></g><g class="cls-1"><path class="cls-4" d="M11.5,116.73l10,5.77v11.55l-10,5.77-10-5.77V122.51Z"/></g><g class="cls-1"><path class="cls-4" d="M11.5,87.73l10,5.77v11.55l-10,5.77-10-5.77V93.51Z"/></g><g class="cls-1"><path class="cls-3" d="M11.5,173.73l10,5.77v11.55l-10,5.77-10-5.77V179.51Z"/></g><g class="cls-1"><path class="cls-4" d="M89.5,131.73l10,5.77v11.55l-10,5.77-10-5.77V137.51Z"/></g><g class="cls-1"><path class="cls-5" d="M89.5,73.73l10,5.77V91.05l-10,5.77-10-5.77V79.51Z"/></g><g class="cls-1"><path class="cls-3" d="M89.5,188.73l10,5.77v11.55l-10,5.77-10-5.77V194.51Z"/></g><g class="cls-1"><path class="cls-3" d="M37.5,188.73l10,5.77v11.55l-10,5.77-10-5.77V194.51Z"/></g><path class="cls-6" d="M37.69,130.66,26,137.4v40.75l11.69,6.75,11.69-6.75V137.4ZM28.82,139l8.87-5.12L46.56,139v10.24l-8.87,5.12-8.87-5.12Z"/></g></g></svg>