<svg xmlns="http://www.w3.org/2000/svg" viewBox="0 0 36.79 36.79"><defs><style>.tweet-1{fill:#999;}.tweet-2{fill:none;}</style></defs><title>tweet</title><g id="Layer_2" data-name="Layer 2"><g id="intro"><path class="tweet-1" d="M33.83,11.06a11.69,11.69,0,0,1-3.37.92A5.88,5.88,0,0,0,33,8.74a11.69,11.69,0,0,1-3.72,1.42,5.86,5.86,0,0,0-10,5.34A16.62,16.62,0,0,1,7.27,9.38,5.86,5.86,0,0,0,9.08,17.2a5.84,5.84,0,0,1-2.65-.73s0,0,0,.07a5.86,5.86,0,0,0,4.7,5.74,5.83,5.83,0,0,1-1.54.21,5.93,5.93,0,0,1-1.1-.1A5.86,5.86,0,0,0,14,26.46a11.83,11.83,0,0,1-8.67,2.42,16.56,16.56,0,0,0,9,2.63c10.77,0,16.66-8.92,16.66-16.66,0-.25,0-.51,0-.76a11.89,11.89,0,0,0,2.92-3Zm0,0"/><rect class="tweet-2" width="36.79" height="36.79"/></g></g></svg>